<svg xmlns="http://www.w3.org/2000/svg" width="960" height="540" viewBox="0 0 960 540" role="img" aria-labelledby="title desc">
  <title id="title">Data pipeline preview</title>
  <desc id="desc">A dark data pipeline preview showing ingestion, processing, storage, and API stages.</desc>
  <rect width="960" height="540" fill="#020617"/>
  <rect x="56" y="72" width="848" height="396" rx="18" fill="#0f172a" stroke="#1e293b"/>
  <g fill="#111827" stroke="#334155">
    <rect x="96" y="216" width="144" height="108" rx="14"/>
    <rect x="304" y="216" width="144" height="108" rx="14"/>
    <rect x="512" y="216" width="144" height="108" rx="14"/>
    <rect x="720" y="216" width="144" height="108" rx="14"/>
  </g>
  <g stroke="#38bdf8" stroke-width="6" stroke-linecap="round">
    <path d="M240 270H304"/>
    <path d="M448 270H512"/>
    <path d="M656 270H720"/>
  </g>
  <g fill="#38bdf8">
    <path d="M294 258L314 270L294 282Z"/>
    <path d="M502 258L522 270L502 282Z"/>
    <path d="M710 258L730 270L710 282Z"/>
  </g>
  <rect x="126" y="248" width="84" height="12" rx="6" fill="#94a3b8"/>
  <rect x="126" y="276" width="58" height="12" rx="6" fill="#22c55e"/>
  <rect x="334" y="248" width="84" height="12" rx="6" fill="#94a3b8"/>
  <rect x="334" y="276" width="64" height="12" rx="6" fill="#38bdf8"/>
  <rect x="542" y="248" width="84" height="12" rx="6" fill="#94a3b8"/>
  <rect x="542" y="276" width="72" height="12" rx="6" fill="#a78bfa"/>
  <rect x="750" y="248" width="84" height="12" rx="6" fill="#94a3b8"/>
  <rect x="750" y="276" width="50" height="12" rx="6" fill="#38bdf8"/>
  <path d="M144 164H816" stroke="#1e293b" stroke-width="2"/>
  <circle cx="176" cy="164" r="8" fill="#22c55e"/>
  <circle cx="376" cy="164" r="8" fill="#38bdf8"/>
  <circle cx="584" cy="164" r="8" fill="#a78bfa"/>
  <circle cx="784" cy="164" r="8" fill="#38bdf8"/>
</svg>
